<svg xmlns="http://www.w3.org/2000/svg" width="48" height="48" id="portfolio"><path style="line-height:normal;text-indent:0;text-align:start;text-decoration-line:none;text-decoration-style:solid;text-decoration-color:#000;text-transform:none;block-progression:tb;isolation:auto;mix-blend-mode:normal" d="M24 0C10.751 0 0 10.751 0 24s10.751 24 24 24 24-10.751 24-24S37.249 0 24 0zm0 1c12.708 0 23 10.291 23 23S36.708 47 24 47 1 36.709 1 24 11.292 1 24 1zm-2.25 12C20.232 13 19 14.252 19 15.78V16h-7c-1.653 0-3 1.347-3 3v14.5c0 .417.193.775.459 1.041.266.266.624.459 1.041.459h27c.417 0 .775-.193 1.041-.459.266-.266.459-.624.459-1.041V19c0-1.653-1.347-3-3-3h-7v-.22c0-1.528-1.232-2.78-2.75-2.78h-4.5zm0 1h4.5c.975 0 1.75.782 1.75 1.78V16h-8v-.22c0-.998.775-1.78 1.75-1.78zM12 17h2v6a.5.5 0 0 0-.5.5v.5H12c-1.117 0-2-.883-2-2v-3c0-1.117.883-2 2-2zm3 0h2v6h-2v-6zm3 0h12v6a.5.5 0 0 0-.5.5v.5h-11v-.5a.5.5 0 0 0-.5-.5v-6zm13 0h2v6h-2v-6zm3 0h2c1.117 0 2 .883 2 2v3c0 1.117-.883 2-2 2h-1.5v-.5a.5.5 0 0 0-.5-.5v-6zm-19.5 7h3v2h-1v-1h-1v1h-1v-2zm16 0h3v2h-1v-1h-1v1h-1v-2zm-20.5.219c.532.48 1.23.781 2 .781h1.5v1.5a.5.5 0 0 0 .5.5v7h-3.5a.544.544 0 0 1-.334-.166A.544.544 0 0 1 10 33.5v-9.281zm28 0V33.5a.545.545 0 0 1-.166.334.544.544 0 0 1-.334.166H34v-7a.5.5 0 0 0 .5-.5V25H36c.77 0 1.468-.301 2-.781zM18.5 25h11v1.5a.5.5 0 0 0 .5.5v7H18v-7a.5.5 0 0 0 .5-.5V25zM15 27h2v7h-2v-7zm16 0h2v7h-2v-7z" color="#000" font-family="sans-serif" font-weight="400" overflow="visible"></path></svg>