<svg xmlns="http://www.w3.org/2000/svg" width="512" height="512" fill-rule="evenodd" clip-rule="evenodd" image-rendering="optimizeQuality" shape-rendering="geometricPrecision" text-rendering="geometricPrecision" viewBox="0 0 512 512" id="vaccum-cleaner"><defs><linearGradient id="a" x1="217.962" x2="294.064" y1="10.669" y2="499.725" gradientUnits="userSpaceOnUse"><stop offset="0" stop-color="#1e8ac6"></stop><stop offset=".302" stop-color="#834fbc"></stop><stop offset="1" stop-color="#e813b1"></stop></linearGradient></defs><path fill="url(#a)" fill-rule="nonzero" d="M78 409c-71,-5 -105,-92 -53,-144 15,-15 36,-25 59,-25l135 0c50,0 76,-61 40,-97 -10,-11 -25,-17 -40,-17l-103 0 0 32 0 0c0,4 -3,7 -7,6l-21 -4 0 -81 22 -4c4,0 6,3 6,6l0 33 103 0c61,0 92,74 49,118 -13,12 -30,20 -49,20l-135 0c-63,0 -97,78 -51,124 12,12 29,20 47,21 3,-8 10,-14 21,-14 -3,14 -3,30 0,43 -11,0 -21,-7 -23,-17zm246 60c0,-11 13,-17 21,-9 8,8 2,21 -9,21 -7,0 -12,-5 -12,-12zm-5 17l0 0zm42 -17c0,-22 -27,-33 -42,-17 -10,9 -10,25 0,34 15,16 42,5 42,-17zm-20 4c5,-5 -4,-14 -9,-9 -6,6 3,15 9,9zm-56 -192l72 0 0 -11c0,-7 -5,-12 -12,-12l-48 0c-7,0 -12,5 -12,12l0 11zm14 85c0,-18 22,-27 34,-14 13,13 4,34 -14,34 -11,0 -20,-9 -20,-20zm-17 -31l0 62 99 0 0 -62 -99 0zm76 17c0,-4 6,-4 6,0l0 28c0,4 -6,4 -6,0l0 -28zm-49 4c-9,9 -3,24 10,24 12,0 19,-15 10,-24 -6,-5 -14,-5 -20,0zm-128 -5c0,12 23,19 37,10 4,-3 6,-6 6,-10l0 -62c-6,1 -13,2 -19,5l0 49c0,4 -6,4 -6,0l0 -47c-6,4 -13,8 -18,12l0 43zm-32 26l0 60c0,16 13,29 29,29l128 0c2,-26 35,-37 52,-19 5,5 8,12 9,19 8,-2 14,-9 14,-17l0 -7c14,6 40,12 64,-11 25,-24 56,15 56,15 5,6 15,-2 10,-8 0,0 -39,-49 -75,-15 -22,21 -46,10 -55,5l0 -25 -102 0c-2,0 -3,-1 -3,-3l0 -68c0,-2 1,-3 3,-3l102 0 0 -20c0,-12 -9,-22 -21,-22l-122 0c-3,0 -5,1 -8,1l0 63c0,18 -29,26 -47,15 -5,-4 -8,-9 -8,-15l0 -37c-16,16 -26,38 -26,63zm-43 10c-4,20 0,59 21,59l17 0c-3,-10 -1,-76 0,-83l-17 0c-12,0 -18,13 -21,24zm-80 -170l0 -194c0,-4 4,-7 8,-6l44 10c3,1 4,3 4,6l0 0 0 173c0,3 -2,6 -5,6l-43 10c-4,1 -8,-2 -8,-5l0 0z"></path></svg>