<svg xmlns="http://www.w3.org/2000/svg" viewBox="0 0 64 64" id="washing-machine"><defs><linearGradient id="a" x1="5.709" x2="55.709" y1="2.702" y2="59.559" gradientUnits="userSpaceOnUse"><stop offset="0" stop-color="#fbb03b"></stop><stop offset=".139" stop-color="#faa339"></stop><stop offset=".397" stop-color="#f78134"></stop><stop offset=".742" stop-color="#f14a2b"></stop><stop offset="1" stop-color="#ed1c24"></stop></linearGradient></defs><path fill="url(#a)" d="M32 47.7a12.606 12.606 0 0 0 12.564-14.036l.012-.03-.018-.007A12.641 12.641 0 1 0 32 47.7Zm0-23.288a10.653 10.653 0 0 1 10.5 8.953 6.943 6.943 0 0 1-5.658 3.816c-3.065.2-5.34-1.246-7.351-2.521a14.2 14.2 0 0 0-2.824-1.523 14.125 14.125 0 0 0-5.012-.533A10.655 10.655 0 0 1 32 24.409ZM21.378 34.624a12.758 12.758 0 0 1 4.642.4 12.839 12.839 0 0 1 2.4 1.318c2.016 1.28 4.494 2.853 7.845 2.853q.347 0 .708-.024a8.436 8.436 0 0 0 5.54-2.514 10.638 10.638 0 0 1-21.154-1.607c-.003-.142.013-.283.019-.426ZM9.787 63h44.426a1 1 0 0 0 1-1v-4.051h.331a1 1 0 0 0 1-1V6.343A5.35 5.35 0 0 0 51.2 1H12.8a5.349 5.349 0 0 0-5.343 5.343v50.606a1 1 0 0 0 1 1h.33V62a1 1 0 0 0 1 1Zm44.757-49.313V27.28h-6.823a17.521 17.521 0 0 0-31.442 0H9.457V13.687ZM32 19.494a15.559 15.559 0 1 1-15.559 15.559A15.577 15.577 0 0 1 32 19.494ZM15.436 29.28a17.56 17.56 0 1 0 33.127 0h5.981v26.669H9.457V29.28ZM53.213 61H10.787v-3.051h42.426Zm1.331-54.657v5.344H26.063V3H51.2a3.347 3.347 0 0 1 3.344 3.343Zm-45.087 0A3.347 3.347 0 0 1 12.8 3h11.263v8.687H9.457Zm37.176 4.788a3.788 3.788 0 1 0-3.789-3.788 3.792 3.792 0 0 0 3.789 3.788Zm0-5.576a1.788 1.788 0 1 1-1.789 1.788 1.79 1.79 0 0 1 1.789-1.788Zm-9.459 5.576a3.788 3.788 0 1 0-3.789-3.788 3.792 3.792 0 0 0 3.789 3.788Zm0-5.576a1.788 1.788 0 1 1-1.789 1.788 1.79 1.79 0 0 1 1.789-1.788Zm-15.787.788v2H13.21v-2Z"></path></svg>