<svg xmlns="http://www.w3.org/2000/svg" enable-background="new 0 0 48 48" viewBox="0 0 48 48" id="laptop"><linearGradient id="a" x1="5.043" x2="42.957" y1="43.457" y2="5.543" gradientTransform="matrix(1 0 0 -1 0 50)" gradientUnits="userSpaceOnUse"><stop offset="0" stop-color="#fc92c3"></stop><stop offset=".5" stop-color="#c2a2d5"></stop><stop offset="1" stop-color="#8e85d5"></stop></linearGradient><path fill="url(#a)" d="M17.7071,25.707c-0.3906,0.3906-1.0234,0.3906-1.4141,0c-0.3906-0.3906-0.3906-1.0234,0-1.4141l4-4
	c0.3906-0.3906,1.0234-0.3906,1.4141,0s0.3906,1.0234,0,1.4141L17.7071,25.707z M32.7071,20.707
	c0.3906-0.3906,0.3906-1.0234,0-1.4141s-1.0234-0.3906-1.4141,0l-4,4c-0.3906,0.3906-0.3906,1.0234,0,1.4141s1.0234,0.3906,1.4141,0
	L32.7071,20.707z M47.0001,35h-2V9c0-0.5527-0.4478-1-1-1h-40c-0.5522,0-1,0.4473-1,1v26h-2c-0.5522,0-1,0.4473-1,1v3
	c0,0.5527,0.4478,1,1,1h46c0.5522,0,1-0.4473,1-1v-3C48.0001,35.4473,47.5523,35,47.0001,35z M5.0001,10h38v25h-38
	C5.0001,35,5.0001,10,5.0001,10z M46.0001,38h-44v-1h44V38z M41.0001,11h-34c-0.5522,0-1,0.4473-1,1v21c0,0.5527,0.4478,1,1,1h34
	c0.5522,0,1-0.4473,1-1V12C42.0001,11.4473,41.5523,11,41.0001,11z M40.0001,32h-32V13h32V32z"></path></svg>