<svg xmlns="http://www.w3.org/2000/svg" fill-rule="evenodd" stroke-linejoin="round" stroke-miterlimit="2" clip-rule="evenodd" viewBox="0 0 32 32" id="phone"><path fill="url(#_Linear1)" d="M14,25l4,0c0.552,-0 1,-0.448 1,-1c-0,-0.552 -0.448,-1 -1,-1l-4,0c-0.552,-0 -1,0.448 -1,1c-0,0.552 0.448,1 1,1Z"></path><path fill="url(#_Linear2)" d="M21,2l-10,0c-1.657,0 -3,1.343 -3,3l0,22c0,1.657 1.343,3 3,3l10,0c1.657,-0 3,-1.343 3,-3l-0,-22c-0,-1.657 -1.343,-3 -3,-3Zm-1,2l0,1c0,1.657 -1.343,3 -3,3l-2,-0c-1.657,-0 -3,-1.343 -3,-3l0,-1l-1,0c-0.552,0 -1,0.448 -1,1c0,-0 0,22 0,22c0,0.552 0.448,1 1,1c0,0 10,0 10,-0c0.552,-0 1,-0.448 1,-1l-0,-22c-0,-0.552 -0.448,-1 -1,-1l-1,0Zm-2,0l0,1c0,0.552 -0.448,1 -1,1c-0,0 -2,-0 -2,-0c-0.552,-0 -1,-0.448 -1,-1l0,-1l4,0Z"></path><defs><linearGradient id="_Linear1" x1="0" x2="1" y1="0" y2="0" gradientTransform="matrix(28 0 0 28 2 16)" gradientUnits="userSpaceOnUse"><stop offset="0" stop-color="#ee4036"></stop><stop offset="1" stop-color="#faaf40"></stop></linearGradient><linearGradient id="_Linear2" x1="0" x2="1" y1="0" y2="0" gradientTransform="matrix(28 0 0 28 2 16)" gradientUnits="userSpaceOnUse"><stop offset="0" stop-color="#ee4036"></stop><stop offset="1" stop-color="#faaf40"></stop></linearGradient></defs></svg>