<svg xmlns="http://www.w3.org/2000/svg" width="48" height="48" id="direction"><path style="line-height:normal;text-indent:0;text-align:start;text-decoration-line:none;text-decoration-style:solid;text-decoration-color:#000;text-transform:none;block-progression:tb;isolation:auto;mix-blend-mode:normal" d="M24 0C10.751 0 0 10.751 0 24s10.751 24 24 24 24-10.751 24-24S37.249 0 24 0zm0 1c12.708 0 23 10.291 23 23S36.708 47 24 47 1 36.709 1 24 11.292 1 24 1zm-1 9a.5.5 0 0 0-.5.5V13h-10a.501.501 0 0 0-.354.146l-2 2a.5.5 0 0 0 0 .708l2 2c.094.094.221.146.354.146h10v17h-3a.5.5 0 0 0-.5.5v2a.5.5 0 0 0 .5.5h9c.5 0 .5-.5.5-.5v-2a.5.5 0 0 0-.5-.5h-3V23h10c.133 0 .26-.053.354-.146l2-2a.5.5 0 0 0 0-.708l-2-2A.499.499 0 0 0 35.5 18h-10v-7.5a.5.5 0 0 0-.5-.5h-2zm.5 1h1v7.418a.502.502 0 0 0 0 .164v3.836a.502.502 0 0 0 0 .164V35h-1V17.578a.5.5 0 0 0 0-.16v-3.84a.5.5 0 0 0 0-.16V11zm-10.793 3H22.5v3h-9.793l-1.5-1.5 1.5-1.5zM25.5 19h9.793l1.5 1.5-1.5 1.5H25.5v-3zM20 36h8v1h-8v-1z" color="#000" font-family="sans-serif" font-weight="400" overflow="visible"></path></svg>