<svg xmlns="http://www.w3.org/2000/svg" viewBox="0 0 52 52" id="scale"><g fill="none" stroke="#000" stroke-linecap="round" stroke-linejoin="round" stroke-miterlimit="10" stroke-width="2"><path d="M36.898 44.786H15.101a4.625 4.625 0 0 0-4.625 4.625V50h31.047v-.589a4.625 4.625 0 0 0-4.625-4.625zM31.356 39.573H20.643a4.625 4.625 0 0 0-4.625 4.625v.588H35.98v-.588a4.625 4.625 0 0 0-4.625-4.625zM26 39.573V7.636M48.456 4.818H28.818M23.182 4.818H3.544M42.595 28.741c-4.348 0-7.176-4.575-5.231-8.464l5.231-15.463 5.231 15.463c1.945 3.889-.883 8.464-5.23 8.464zM9.404 28.741c-4.348 0-7.176-4.575-5.231-8.464l5.23-15.463 5.232 15.463c1.944 3.889-.883 8.464-5.231 8.464z"></path><circle cx="26" cy="4.818" r="2.818"></circle><path d="M3.63 21.98h11.547M36.822 21.98h11.546"></path></g></svg>