<svg xmlns="http://www.w3.org/2000/svg" xmlns:xlink="http://www.w3.org/1999/xlink" enable-background="new 0 0 32 32" viewBox="0 0 32 32" id="tv"><defs><linearGradient id="a"><stop offset="0" stop-color="#000092"></stop><stop offset="1" stop-color="#ff00f3"></stop></linearGradient><linearGradient id="b" x1="2" x2="27" y1="16" y2="16" gradientUnits="userSpaceOnUse" xlink:href="#a"></linearGradient></defs><path fill="url(#b)" d="M 7.5 4 C 6.673 4 6 4.673 6 5.5 L 6 7.5 L 6 8.5 L 6 10.5 C 6 11.327 6.673 12 7.5 12 L 24.5 12 C 25.327 12 26 11.327 26 10.5 L 26 8.5 L 26 7.5 L 26 5.5 C 26 4.673 25.327 4 24.5 4 L 7.5 4 z M 7.5 5 L 24.5 5 C 24.775 5 25 5.225 25 5.5 L 25 7.5 L 25 8.5 C 25 8.775 24.775 9 24.5 9 L 7.5 9 C 7.225 9 7 8.775 7 8.5 L 7 7.5 L 7 5.5 C 7 5.225 7.225 5 7.5 5 z M 14.5 6 C 14.224 6 14 6.224 14 6.5 C 14 6.776 14.224 7 14.5 7 L 17.5 7 C 17.776 7 18 6.776 18 6.5 C 18 6.224 17.776 6 17.5 6 L 14.5 6 z M 7 9.9082031 C 7.157 9.9642031 7.324 10 7.5 10 L 24.5 10 C 24.676 10 24.843 9.9642031 25 9.9082031 L 25 10.5 C 25 10.775 24.775 11 24.5 11 L 7.5 11 C 7.225 11 7 10.775 7 10.5 L 7 9.9082031 z M 9.5 13 C 9.224 13 9 13.224 9 13.5 L 9 14.167969 C 9 14.626969 8.6269688 15 8.1679688 15 C 7.8919688 15 7.6679688 15.224 7.6679688 15.5 C 7.6679688 15.776 7.8919688 16 8.1679688 16 C 9.1789688 16 10 15.178969 10 14.167969 L 10 13.5 C 10 13.224 9.776 13 9.5 13 z M 12.5 13 C 12.224 13 12 13.224 12 13.5 L 12 14.167969 C 12 14.626969 11.626969 15 11.167969 15 C 10.891969 15 10.667969 15.224 10.667969 15.5 C 10.667969 15.776 10.891969 16 11.167969 16 C 12.178969 16 13 15.178969 13 14.167969 L 13 13.5 C 13 13.224 12.776 13 12.5 13 z M 19.501953 13 C 19.225953 13 19.001953 13.224 19.001953 13.5 L 19.001953 14.167969 C 19.001953 15.178969 19.824938 16 20.835938 16 C 21.111937 16 21.335938 15.776 21.335938 15.5 C 21.335938 15.224 21.111937 15 20.835938 15 C 20.376938 15 20.001953 14.626969 20.001953 14.167969 L 20.001953 13.5 C 20.001953 13.224 19.777953 13 19.501953 13 z M 22.501953 13 C 22.225953 13 22.001953 13.224 22.001953 13.5 L 22.001953 14.167969 C 22.001953 15.178969 22.824938 16 23.835938 16 C 24.111937 16 24.335938 15.776 24.335938 15.5 C 24.335938 15.224 24.111937 15 23.835938 15 C 23.376938 15 23.001953 14.626969 23.001953 14.167969 L 23.001953 13.5 C 23.001953 13.224 22.777953 13 22.501953 13 z M 2.5 17 C 2.224 17 2 17.224 2 17.5 L 2 25.5 C 2 25.776 2.224 26 2.5 26 L 4.5 26 L 4.5 27 L 2.5 27 C 2.224 27 2 27.224 2 27.5 C 2 27.776 2.224 28 2.5 28 L 7.5 28 C 7.776 28 8 27.776 8 27.5 C 8 27.224 7.776 27 7.5 27 L 5.5 27 L 5.5 26 L 7.5 26 C 7.776 26 8 25.776 8 25.5 L 8 17.5 C 8 17.224 7.776 17 7.5 17 L 2.5 17 z M 9.5 17 C 9.224 17 9 17.224 9 17.5 L 9 25.5 C 9 25.776 9.224 26 9.5 26 L 14 26 L 14 27 L 11.5 27 C 11.224 27 11 27.224 11 27.5 C 11 27.776 11.224 28 11.5 28 L 14.5 28 L 17.5 28 L 20.5 28 C 20.776 28 21 27.776 21 27.5 C 21 27.224 20.776 27 20.5 27 L 18 27 L 18 26 L 22.5 26 C 22.776 26 23 25.776 23 25.5 L 23 17.5 C 23 17.224 22.776 17 22.5 17 L 9.5 17 z M 24.5 17 C 24.224 17 24 17.224 24 17.5 L 24 25.5 C 24 25.776 24.224 26 24.5 26 L 26.5 26 L 26.5 27 L 24.5 27 C 24.224 27 24 27.224 24 27.5 C 24 27.776 24.224 28 24.5 28 L 29.5 28 C 29.776 28 30 27.776 30 27.5 C 30 27.224 29.776 27 29.5 27 L 27.5 27 L 27.5 26 L 29.5 26 C 29.776 26 30 25.776 30 25.5 L 30 17.5 C 30 17.224 29.776 17 29.5 17 L 24.5 17 z M 3 18 L 7 18 L 7 25 L 3 25 L 3 18 z M 10 18 L 22 18 L 22 25 L 17.5 25 L 14.5 25 L 10 25 L 10 18 z M 25 18 L 29 18 L 29 25 L 25 25 L 25 18 z M 5 18.998047 A 1 1 0 0 0 4 19.998047 A 1 1 0 0 0 5 20.998047 A 1 1 0 0 0 6 19.998047 A 1 1 0 0 0 5 18.998047 z M 27 18.998047 A 1 1 0 0 0 26 19.998047 A 1 1 0 0 0 27 20.998047 A 1 1 0 0 0 28 19.998047 A 1 1 0 0 0 27 18.998047 z M 5 21.998047 A 1 1 0 0 0 4 22.998047 A 1 1 0 0 0 5 23.998047 A 1 1 0 0 0 6 22.998047 A 1 1 0 0 0 5 21.998047 z M 27 21.998047 A 1 1 0 0 0 26 22.998047 A 1 1 0 0 0 27 23.998047 A 1 1 0 0 0 28 22.998047 A 1 1 0 0 0 27 21.998047 z M 15 26 L 17 26 L 17 27 L 15 27 L 15 26 z "></path></svg>